<?xml version="1.0" standalone="no"?>
<!DOCTYPE svg PUBLIC "-//W3C//DTD SVG 20010904//EN"
 "http://www.w3.org/TR/2001/REC-SVG-20010904/DTD/svg10.dtd">
<svg version="1.0" xmlns="http://www.w3.org/2000/svg"
 width="256.000000pt" height="256.000000pt" viewBox="0 0 256.000000 256.000000"
 preserveAspectRatio="xMidYMid meet">
<metadata>
Created by potrace 1.14, written by Peter Selinger 2001-2017
</metadata>
<g transform="translate(0.000000,256.000000) scale(0.100000,-0.100000)"
fill="#000000" stroke="none">
<path d="M0 1280 l0 -1280 1280 0 1280 0 0 1280 0 1280 -1280 0 -1280 0 0
-1280z m1190 850 l0 -280 -30 0 c-45 0 -147 -37 -210 -75 -139 -86 -239 -231
-265 -382 l-7 -43 -272 0 -272 0 8 78 c46 416 352 789 760 926 75 26 207 53
261 55 l27 1 0 -280z m153 273 c-7 -2 -19 -2 -25 0 -7 3 -2 5 12 5 14 0 19 -2
13 -5z m72 -14 c-15 -7 -8 -8 25 -4 34 4 41 3 30 -6 -12 -8 -7 -9 20 -5 27 5
31 3 20 -5 -11 -8 -7 -9 20 -5 19 3 29 2 22 -2 -16 -11 93 -46 111 -36 6 4 9
3 4 -1 -4 -5 28 -26 70 -48 108 -55 178 -102 248 -170 l60 -59 -69 57 c-172
142 -393 242 -578 260 -87 9 -102 18 -43 25 74 10 83 10 60 -1z m95 -554 c28
-14 50 -28 50 -30 0 -3 -21 5 -47 18 -27 14 -55 27 -63 30 -10 3 -11 6 -2 6 7
1 35 -10 62 -24z m633 -462 c-23 -2 -64 -2 -90 0 -26 2 -7 3 42 3 50 0 71 -1
48 -3z m-1466 -143 c6 0 17 -26 23 -57 16 -79 71 -188 127 -252 80 -92 259
-191 344 -191 18 0 19 -12 19 -273 l0 -273 -67 8 c-147 17 -305 71 -436 149
-142 84 -301 242 -385 383 -75 124 -139 308 -156 453 l-7 52 43 3 c32 2 416 1
495 -2z m1688 -42 c-19 -154 -76 -327 -147 -444 -175 -292 -465 -491 -788
-540 -52 -7 -101 -14 -107 -14 -10 0 -13 60 -13 269 l0 268 68 17 c212 51 381
224 423 434 l13 62 279 0 279 0 -7 -52z"/>
<path d="M1055 1904 c-97 -34 -311 -134 -325 -153 -3 -3 -17 -12 -32 -18 -29
-13 -38 -33 -15 -33 8 0 7 -4 -3 -10 -12 -8 -11 -10 7 -10 12 0 24 6 26 13 4
10 6 10 6 0 1 -7 8 -13 16 -13 9 0 12 -6 9 -15 -4 -8 -11 -12 -17 -8 -6 4 -7
1 -2 -7 6 -10 11 -9 22 6 12 16 11 21 -4 33 -16 12 -16 13 -1 8 10 -3 23 0 30
7 7 7 25 20 41 30 24 16 27 16 21 2 -3 -9 -10 -14 -14 -11 -4 3 -11 -2 -14
-11 -10 -26 -7 -25 24 2 16 15 27 31 23 37 -3 6 -1 7 5 3 6 -3 15 1 20 10 5 9
11 14 13 13 9 -7 67 35 62 44 -3 6 -1 7 4 4 6 -4 31 2 55 13 25 11 68 25 96
31 45 9 52 14 52 35 0 30 -14 30 -105 -2z"/>
<path d="M595 1660 c-3 -6 1 -7 9 -4 18 7 21 14 7 14 -6 0 -13 -4 -16 -10z"/>
<path d="M658 1653 c7 -3 16 -2 19 1 4 3 -2 6 -13 5 -11 0 -14 -3 -6 -6z"/>
<path d="M946 291 c-15 -23 58 -56 149 -67 22 -3 45 -6 52 -9 15 -5 11 13 -11
50 -9 17 -15 23 -13 14 5 -14 -1 -14 -50 -1 -42 10 -57 11 -63 2 -9 -15 -56
-8 -52 8 2 14 -4 16 -12 3z"/>
<path d="M2194 839 c-47 -53 -242 -161 -369 -204 -97 -33 -211 -57 -335 -68
l-125 -12 -5 -40 c-4 -36 2 -139 13 -189 3 -16 14 -20 67 -23 40 -2 68 1 78 9
13 11 14 11 8 0 -6 -10 -1 -11 18 -6 15 3 26 2 26 -4 0 -5 7 -13 16 -16 8 -3
12 -2 9 4 -3 6 -1 10 5 10 6 0 8 4 5 10 -4 6 2 7 18 1 19 -8 32 -5 58 13 19
13 40 21 48 18 8 -3 20 3 27 12 7 10 15 17 18 17 3 -1 14 -1 24 -1 14 0 15 2
2 10 -12 8 -11 10 6 10 12 0 27 7 34 15 7 9 15 13 18 10 3 -2 13 5 23 17 11
11 19 17 19 13 0 -4 10 3 23 16 28 28 65 59 72 59 3 0 14 9 25 20 11 11 18 20
15 20 -2 0 6 10 18 23 12 13 26 21 31 19 5 -3 6 0 3 5 -4 6 2 21 13 33 11 13
20 27 20 32 0 5 5 6 10 3 6 -4 9 -3 8 2 -4 11 34 73 45 73 4 0 5 5 2 10 -3 6
1 13 10 16 13 6 14 8 3 15 -8 6 -9 9 -1 9 6 0 16 14 22 30 12 35 2 39 -25 9z"/>
<path d="M1498 273 c7 -3 16 -2 19 1 4 3 -2 6 -13 5 -11 0 -14 -3 -6 -6z"/>
</g>
</svg>
